<?xml version="1.0" encoding="UTF-8" standalone="no"?>
<!-- Created with Inkscape (http://www.inkscape.org/) -->

<svg
   xmlns:dc="http://purl.org/dc/elements/1.1/"
   xmlns:cc="http://creativecommons.org/ns#"
   xmlns:rdf="http://www.w3.org/1999/02/22-rdf-syntax-ns#"
   xmlns:svg="http://www.w3.org/2000/svg"
   xmlns="http://www.w3.org/2000/svg"
   xmlns:sodipodi="http://sodipodi.sourceforge.net/DTD/sodipodi-0.dtd"
   xmlns:inkscape="http://www.inkscape.org/namespaces/inkscape"
   width="219.99998"
   height="220"
   id="svg3288"
   version="1.1"
   inkscape:version="0.48.4 r9939"
   sodipodi:docname="Ordaap Logo Closed.svg">
  <defs
     id="defs3290" />
  <sodipodi:namedview
     id="base"
     pagecolor="#ffffff"
     bordercolor="#666666"
     borderopacity="1.0"
     inkscape:pageopacity="0.0"
     inkscape:pageshadow="2"
     inkscape:zoom="1.4142136"
     inkscape:cx="-38.679196"
     inkscape:cy="183.26029"
     inkscape:document-units="px"
     inkscape:current-layer="layer1"
     showgrid="false"
     inkscape:window-width="1366"
     inkscape:window-height="744"
     inkscape:window-x="0"
     inkscape:window-y="24"
     inkscape:window-maximized="1"
     fit-margin-top="0"
     fit-margin-left="0"
     fit-margin-right="0"
     fit-margin-bottom="0"
     inkscape:snap-grids="true"
     inkscape:snap-global="false">
    <inkscape:grid
       type="xygrid"
       id="grid2998"
       empspacing="5"
       visible="true"
       enabled="true"
       snapvisiblegridlinesonly="true"
       originx="-1.3090805e-05px"
       originy="-4.1358816e-06px" />
  </sodipodi:namedview>
  <metadata
     id="metadata3293">
    <rdf:RDF>
      <cc:Work
         rdf:about="">
        <dc:format>image/svg+xml</dc:format>
        <dc:type
           rdf:resource="http://purl.org/dc/dcmitype/StillImage" />
        <dc:title />
      </cc:Work>
    </rdf:RDF>
  </metadata>
  <g
     inkscape:label="Layer 1"
     inkscape:groupmode="layer"
     id="layer1"
     transform="translate(-30.156503,-7.8414808)">
    <g
       transform="matrix(1.2222222,0,0,-1.2222222,261.86661,234.26533)"
       id="g3054">
      <path
         style="fill:#ce1c2e;fill-opacity:1;fill-rule:nonzero;stroke:none"
         d="m -180.57483,185.25588 c -4.97135,0 -9.00639,-4.38973 -9.00617,-9.8186 l 0,-2.68622 0,-154.596582 0,-3.126204 c 0.0316,-5.4228 4.08486,-9.7977296 9.05552,-9.7722828 l 161.969982,0.0028 c 4.970663,0.025491 8.949516,5.2728798 8.949824,10.6957618 l 0,2.223078 0.02467,0 0,155.592349 0,1.6673 c 0,5.42887 -4.034835,9.8186 -9.006169,9.8186 z"
         id="path3056"
         inkscape:connector-curvature="0"
         sodipodi:nodetypes="sccccccccccsss" />
    </g>
    <g
       transform="matrix(1.0958722,0,0,-1.0935565,57.642529,118.80748)"
       id="g3058">
      <path
         id="path3060"
         style="fill:#ffffff;fill-opacity:1;fill-rule:nonzero;stroke:none"
         d="m 0,0 c 0,41.577 33.705,75.283 75.283,75.283 41.577,0 75.282,-33.706 75.282,-75.283 0,-41.577 -33.705,-75.283 -75.282,-75.283 C 33.705,-75.283 0,-41.577 0,0"
         inkscape:connector-curvature="0" />
    </g>
    <g
       transform="matrix(1.0958722,0,0,-1.0935565,133.07113,106.24678)"
       id="g3062">
      <path
         id="path3064"
         style="fill:#241516;fill-opacity:1;fill-rule:nonzero;stroke:none"
         d="m 0,0 c 0,3.564 2.889,6.453 6.453,6.453 3.564,0 6.453,-2.889 6.453,-6.453 0,-3.564 -2.889,-6.453 -6.453,-6.453 C 2.889,-6.453 0,-3.564 0,0"
         inkscape:connector-curvature="0" />
    </g>
    <g
       transform="matrix(1.0958722,0,0,-1.0935565,133.07113,140.11599)"
       id="g3066">
      <path
         id="path3068"
         style="fill:#241516;fill-opacity:1;fill-rule:nonzero;stroke:none"
         d="m 0,0 c 0,3.564 2.889,6.453 6.453,6.453 3.564,0 6.453,-2.889 6.453,-6.453 0,-3.564 -2.889,-6.453 -6.453,-6.453 C 2.889,-6.453 0,-3.564 0,0"
         inkscape:connector-curvature="0" />
    </g>
    <g
       transform="matrix(1.0958722,0,0,-1.0935565,133.07113,173.98517)"
       id="g3070">
      <path
         id="path3072"
         style="fill:#241516;fill-opacity:1;fill-rule:nonzero;stroke:none"
         d="m 0,0 c 0,3.564 2.889,6.453 6.453,6.453 3.564,0 6.453,-2.889 6.453,-6.453 0,-3.564 -2.889,-6.453 -6.453,-6.453 C 2.889,-6.453 0,-3.564 0,0"
         inkscape:connector-curvature="0" />
    </g>
    <g
       transform="matrix(1.0958722,0,0,-1.0935565,173.27601,41.053643)"
       id="g3074">
      <path
         id="path3076"
         style="fill:#241516;fill-opacity:1;fill-rule:nonzero;stroke:none"
         d="m 0,0 -18.415,-5.315 c -0.256,-0.09 -0.569,-0.135 -0.826,-0.179 -2.97,2.58 -6.845,4.321 -11.078,4.321 -4.232,0 -8.118,-1.697 -11.077,-4.321 -0.313,0.044 -0.57,0.089 -0.838,0.179 L -60.548,0 c -5.494,1.575 -10.687,-2.568 -10.687,-8.241 l 0,-20.849 c 0,-5.717 5.193,-9.861 10.687,-8.241 l 19.152,5.583 c 2.959,-2.669 6.8,-4.321 11.077,-4.456 4.277,0.135 8.152,1.787 11.123,4.456 l 19.151,-5.583 c 5.494,-1.62 10.81,2.524 10.81,8.241 l 0,20.849 C 10.765,-2.524 5.494,1.575 0,0"
         inkscape:connector-curvature="0" />
    </g>
    <g
       transform="matrix(1.0958722,0,0,-1.0935565,173.27601,41.053643)"
       id="g3078">
      <path
         id="path3080"
         style="fill:none;stroke:#ffffff;stroke-width:8.45499992;stroke-linecap:butt;stroke-linejoin:miter;stroke-miterlimit:10;stroke-opacity:1;stroke-dasharray:none"
         d="m 0,0 -18.415,-5.315 c -0.256,-0.09 -0.569,-0.135 -0.826,-0.179 -2.97,2.58 -6.845,4.321 -11.078,4.321 -4.232,0 -8.118,-1.697 -11.077,-4.321 -0.313,0.044 -0.57,0.089 -0.838,0.179 L -60.548,0 c -5.494,1.575 -10.687,-2.568 -10.687,-8.241 l 0,-20.849 c 0,-5.717 5.193,-9.861 10.687,-8.241 l 19.152,5.583 c 2.959,-2.669 6.8,-4.321 11.077,-4.456 4.277,0.135 8.152,1.787 11.123,4.456 l 19.151,-5.583 c 5.494,-1.62 10.81,2.524 10.81,8.241 l 0,20.849 C 10.765,-2.524 5.494,1.575 0,0 z"
         inkscape:connector-curvature="0" />
    </g>
    <g
       transform="matrix(1.0958722,0,0,-1.0935565,173.27601,41.053643)"
       id="g3082">
      <path
         id="path3084"
         style="fill:#241516;fill-opacity:1;fill-rule:nonzero;stroke:none"
         d="m 0,0 -18.415,-5.315 c -0.256,-0.09 -0.569,-0.135 -0.826,-0.179 -2.97,2.58 -6.845,4.321 -11.078,4.321 -4.232,0 -8.118,-1.697 -11.077,-4.321 -0.313,0.044 -0.57,0.089 -0.838,0.179 L -60.548,0 c -5.494,1.575 -10.687,-2.568 -10.687,-8.241 l 0,-20.849 c 0,-5.717 5.193,-9.861 10.687,-8.241 l 19.152,5.583 c 2.959,-2.669 6.8,-4.321 11.077,-4.456 4.277,0.135 8.152,1.787 11.123,4.456 l 19.151,-5.583 c 5.494,-1.62 10.81,2.524 10.81,8.241 l 0,20.849 C 10.765,-2.524 5.494,1.575 0,0"
         inkscape:connector-curvature="0" />
    </g>
  </g>
</svg>
